<svg width="520" height="188" viewBox="0 0 520 188" fill="none" xmlns="http://www.w3.org/2000/svg">
<path d="M278.103 36.6896C282.229 38.8735 286.058 41.6684 289.392 44.7658C292.55 47.6999 295.345 51.0211 297.704 54.6327C298.884 56.4355 299.948 58.3109 300.898 60.2467C301.388 61.2449 301.848 62.2552 302.271 63.2776C302.55 63.9491 302.792 65.4433 303.384 65.891C303.602 66.0543 303.911 66.0362 304.153 65.9152C304.582 65.7035 304.83 65.286 305.169 64.9836C314.873 56.3447 327.329 50.9364 340.19 49.3212C342.265 49.061 344.364 48.9945 346.458 48.8796C346.615 48.8735 346.79 48.8554 346.893 48.7344C347.02 48.5892 346.978 48.3653 346.917 48.1839C346.566 47.1494 345.78 46.3448 344.957 45.6612C341.588 42.8542 337.032 41.2631 332.713 40.7852C330.426 40.5311 328.109 40.5977 325.841 40.9546C323.203 41.3781 320.668 42.4307 318.133 43.2776C318.079 43.2958 318.012 43.3139 317.958 43.2958C317.837 43.2534 317.837 43.078 317.867 42.951C318.406 40.6521 319.894 38.9703 321.461 37.2946C323.766 34.8264 326.089 32.3702 328.406 29.9141C328.545 29.7629 328.696 29.5935 328.69 29.3938C328.69 29.2365 328.587 29.0914 328.49 28.9704C326.996 27.0526 324.528 26.2239 322.344 25.3769C319.972 24.4574 317.468 23.8524 314.927 23.677C310.686 23.3745 306.966 24.5905 302.961 25.758C301.945 26.0545 297.637 28.19 298.575 25.4435C300.027 21.2208 303.124 17.8331 305.841 14.3848C306.379 13.7012 306.688 12.7151 305.956 12.0436C305.574 11.6927 305.066 11.5355 304.57 11.3903C300.463 10.1924 296.234 9.62378 291.957 9.76292C284.685 9.99281 278.617 12.3461 273.905 18.0267C273.451 18.5711 272.193 20.259 271.83 18.7042C270.475 12.8724 275 8.40781 278.091 4.08236C278.315 3.77383 278.545 3.4169 278.472 3.04183C278.4 2.64861 278.025 2.38242 277.65 2.23118C276.548 1.78351 275.466 2.07994 274.365 2.33403C271.975 2.88454 269.598 3.43505 267.244 4.12471C260.795 6.01218 254.389 8.5409 248.817 12.34C246.077 14.2094 243.191 16.5808 242.417 19.9746C241.582 23.6165 243.487 27.8754 246.573 29.9202C248.478 31.1845 250.832 31.5656 253.112 31.735C257.414 32.0557 261.757 31.7229 266.028 32.4065C270.215 33.078 274.352 34.7296 278.091 36.7017L278.103 36.6896Z" fill="#D7251E" stroke="white" stroke-width="2.78" stroke-miterlimit="10"/>
<path d="M258.49 56.7138C261.872 56.7138 264.613 53.9728 264.613 50.5916C264.613 47.2104 261.872 44.4694 258.49 44.4694C255.109 44.4694 252.368 47.2104 252.368 50.5916C252.368 53.9728 255.109 56.7138 258.49 56.7138Z" fill="#FFEBE1" stroke="black" stroke-width="0.69" stroke-miterlimit="10"/>
<path d="M258.49 54.058C260.448 54.058 262.036 52.4708 262.036 50.513C262.036 48.5551 260.448 46.9679 258.49 46.9679C256.533 46.9679 254.945 48.5551 254.945 50.513C254.945 52.4708 256.533 54.058 258.49 54.058Z" fill="#1A1D14"/>
<path d="M238.394 43.3865C238.484 43.4833 238.533 43.6527 238.533 43.931C238.545 45.2256 238.557 46.5263 238.563 47.8209C238.587 51.8801 238.587 55.9394 238.563 59.9987C238.563 60.7307 238.696 61.6563 238.527 62.3641C237.994 62.2128 237.462 61.8438 236.96 61.6018C232.653 59.5208 228.128 57.8632 223.494 56.6593C221.54 56.1512 219.604 55.7398 217.613 55.4554L211.304 54.5601C211.201 54.548 211.086 54.5238 211.031 54.4391C210.947 54.3121 211.05 54.1487 211.146 54.0338C212.393 52.5395 213.905 51.4022 215.55 50.3859C219.598 47.8935 224.008 45.9939 228.599 44.7598C230.348 44.2879 232.126 43.9189 233.917 43.6406C234.8 43.5075 235.69 43.4228 236.573 43.3018C237.063 43.2353 237.982 42.9691 238.388 43.3865H238.394Z" fill="#E27915" stroke="#A7520B" stroke-width="1.39" stroke-miterlimit="10"/>
<path d="M360.813 183.997C354.013 184.578 347.002 184.463 340.226 184.094C332.725 183.689 325.223 182.666 317.982 180.627C303.076 176.429 288.908 167.004 282.616 152.854C274.231 134.003 280.614 111.414 288.055 93.338C290.057 88.4741 292.277 83.8825 294.564 79.188C294.691 78.9218 294.346 78.6738 294.147 78.8855C283.112 90.5189 275.98 106.284 272.556 121.771C269.071 137.518 268.745 156.75 279.997 169.623C288.472 179.315 301.914 183.555 314.225 185.612C322.816 187.046 331.551 187.566 340.251 187.167C347.208 186.846 353.947 184.941 360.831 184.058C360.831 184.039 360.819 184.021 360.813 184.003V183.997Z" fill="#DC6C06"/>
<path d="M16.256 158H6.72C5.90933 158 5.312 157.829 4.928 157.488C4.58667 157.104 4.416 156.507 4.416 155.696V114.224C4.416 113.413 4.58667 112.837 4.928 112.496C5.312 112.112 5.90933 111.92 6.72 111.92H17.024C17.7067 111.92 18.2613 112.069 18.688 112.368C19.1573 112.667 19.584 113.157 19.968 113.84L25.728 124.272C25.9413 124.656 26.112 124.933 26.24 125.104C26.4107 125.275 26.624 125.36 26.88 125.36H27.456C27.712 125.36 27.904 125.275 28.032 125.104C28.2027 124.933 28.3947 124.656 28.608 124.272L34.304 113.84C34.688 113.157 35.0933 112.667 35.52 112.368C35.9893 112.069 36.5653 111.92 37.248 111.92H47.616C48.4267 111.92 49.0027 112.112 49.344 112.496C49.728 112.837 49.92 113.413 49.92 114.224V155.696C49.92 156.507 49.728 157.104 49.344 157.488C49.0027 157.829 48.4267 158 47.616 158H37.76C36.9493 158 36.352 157.829 35.968 157.488C35.6267 157.104 35.456 156.507 35.456 155.696V133.168L31.68 140.144C31.296 140.869 30.8267 141.403 30.272 141.744C29.76 142.043 29.0987 142.192 28.288 142.192H25.728C24.9173 142.192 24.2347 142.043 23.68 141.744C23.168 141.403 22.72 140.869 22.336 140.144L18.56 133.168V155.696C18.56 156.507 18.368 157.104 17.984 157.488C17.6427 157.829 17.0667 158 16.256 158ZM75.4325 125.36L72.4245 135.088H82.4725L79.4645 125.36C79.2938 124.976 79.1018 124.699 78.8885 124.528C78.7178 124.357 78.5045 124.272 78.2485 124.272H76.6485C76.3925 124.272 76.1578 124.357 75.9445 124.528C75.7738 124.699 75.6032 124.976 75.4325 125.36ZM71.7845 155.696C71.7845 156.507 71.5925 157.104 71.2085 157.488C70.8672 157.829 70.2912 158 69.4805 158H60.0725C59.2618 158 58.6645 157.829 58.2805 157.488C57.9392 157.104 57.7685 156.507 57.7685 155.696V138.8C57.7685 137.52 57.9605 136.048 58.3445 134.384C58.7712 132.72 59.4112 130.779 60.2645 128.56L65.8325 114.032C66.0885 113.307 66.4725 112.773 66.9845 112.432C67.5392 112.091 68.2432 111.92 69.0965 111.92H86.3125C87.1232 111.92 87.7845 112.091 88.2965 112.432C88.8512 112.773 89.2565 113.307 89.5125 114.032L95.0805 128.56C95.9338 130.779 96.5525 132.72 96.9365 134.384C97.3632 136.048 97.5765 137.52 97.5765 138.8V155.696C97.5765 156.507 97.3845 157.104 97.0005 157.488C96.6592 157.829 96.0832 158 95.2725 158H85.6085C84.7552 158 84.1152 157.829 83.6885 157.488C83.3045 157.104 83.1125 156.507 83.1125 155.696V146.736H71.7845V155.696ZM119.943 123.44V131.632H124.743C125.852 131.632 126.599 131.355 126.983 130.8C127.367 130.203 127.559 129.477 127.559 128.624V126.448C127.559 125.595 127.367 124.891 126.983 124.336C126.599 123.739 125.852 123.44 124.743 123.44H119.943ZM117.639 158H107.783C106.972 158 106.375 157.829 105.991 157.488C105.649 157.104 105.479 156.507 105.479 155.696V114.224C105.479 113.413 105.649 112.837 105.991 112.496C106.375 112.112 106.972 111.92 107.783 111.92H129.095C133.873 111.92 137.159 112.923 138.951 114.928C140.785 116.891 141.703 119.451 141.703 122.608V125.552C141.703 127.344 141.425 128.88 140.871 130.16C140.359 131.397 139.441 132.293 138.119 132.848C140.423 133.104 142.279 134.043 143.687 135.664C145.137 137.285 145.863 139.44 145.863 142.128V155.696C145.863 156.507 145.671 157.104 145.287 157.488C144.945 157.829 144.369 158 143.559 158H133.639C132.828 158 132.231 157.829 131.847 157.488C131.505 157.104 131.335 156.507 131.335 155.696V145.904C131.335 144.965 131.143 144.283 130.759 143.856C130.417 143.387 129.799 143.152 128.903 143.152H119.943V155.696C119.943 156.507 119.751 157.104 119.367 157.488C119.025 157.829 118.449 158 117.639 158ZM192.273 145.904C192.273 147.867 191.974 149.659 191.377 151.28C190.822 152.859 189.798 154.224 188.305 155.376C186.854 156.485 184.849 157.36 182.289 158C179.729 158.64 176.465 158.96 172.497 158.96C168.529 158.96 165.265 158.64 162.705 158C160.145 157.36 158.118 156.485 156.625 155.376C155.174 154.224 154.15 152.859 153.553 151.28C152.998 149.659 152.721 147.867 152.721 145.904V114.224C152.721 113.413 152.892 112.837 153.233 112.496C153.617 112.112 154.214 111.92 155.025 111.92H165.073C165.884 111.92 166.46 112.112 166.801 112.496C167.185 112.837 167.377 113.413 167.377 114.224V143.408C167.377 144.261 167.697 144.987 168.337 145.584C168.977 146.139 170.406 146.416 172.625 146.416C174.886 146.416 176.337 146.139 176.977 145.584C177.617 144.987 177.937 144.261 177.937 143.408V114.224C177.937 113.413 178.108 112.837 178.449 112.496C178.833 112.112 179.43 111.92 180.241 111.92H189.969C190.78 111.92 191.356 112.112 191.697 112.496C192.081 112.837 192.273 113.413 192.273 114.224V145.904ZM207.959 135.92H203.031C202.22 135.92 201.623 135.749 201.239 135.408C200.898 135.024 200.727 134.427 200.727 133.616V131.056C200.727 130.245 200.898 129.669 201.239 129.328C201.623 128.944 202.22 128.752 203.031 128.752H207.447C208.002 128.752 208.428 128.603 208.727 128.304C209.026 127.963 209.175 127.515 209.175 126.96V126H202.199C201.388 126 200.791 125.829 200.407 125.488C200.066 125.104 199.895 124.507 199.895 123.696V114.224C199.895 113.413 200.066 112.837 200.407 112.496C200.791 112.112 201.388 111.92 202.199 111.92H215.127C215.938 111.92 216.514 112.112 216.855 112.496C217.239 112.837 217.431 113.413 217.431 114.224V126.256C217.431 129.499 216.556 131.931 214.807 133.552C213.1 135.131 210.818 135.92 207.959 135.92ZM246.105 158H225.881C225.07 158 224.473 157.829 224.089 157.488C223.747 157.104 223.577 156.507 223.577 155.696V148.208C223.577 147.397 223.747 146.821 224.089 146.48C224.473 146.096 225.07 145.904 225.881 145.904H243.097C243.651 145.904 244.057 145.733 244.313 145.392C244.611 145.008 244.761 144.56 244.761 144.048C244.761 143.323 244.611 142.789 244.313 142.448C244.057 142.107 243.651 141.915 243.097 141.872L233.497 140.528C230.51 140.101 228.099 139.12 226.265 137.584C224.473 136.048 223.577 133.488 223.577 129.904V123.184C223.577 119.557 224.75 116.784 227.097 114.864C229.443 112.901 232.686 111.92 236.825 111.92H254.745C255.555 111.92 256.131 112.112 256.472 112.496C256.856 112.837 257.049 113.413 257.049 114.224V121.84C257.049 122.651 256.856 123.248 256.472 123.632C256.131 123.973 255.555 124.144 254.745 124.144H239.833C239.278 124.144 238.851 124.336 238.553 124.72C238.254 125.061 238.105 125.509 238.105 126.064C238.105 126.619 238.254 127.088 238.553 127.472C238.851 127.856 239.278 128.069 239.833 128.112L249.369 129.392C252.355 129.819 254.766 130.8 256.601 132.336C258.435 133.872 259.353 136.432 259.353 140.016V146.736C259.353 150.363 258.158 153.157 255.769 155.12C253.422 157.04 250.201 158 246.105 158ZM321.984 158H297.408C296.597 158 296 157.829 295.616 157.488C295.274 157.104 295.104 156.507 295.104 155.696V114.224C295.104 113.413 295.274 112.837 295.616 112.496C296 112.112 296.597 111.92 297.408 111.92H317.824C322.005 111.92 325.098 112.731 327.104 114.352C329.109 115.931 330.112 118.384 330.112 121.712V124.784C330.112 126.576 329.792 128.048 329.152 129.2C328.554 130.309 327.616 131.141 326.336 131.696C329.066 131.952 331.093 132.891 332.416 134.512C333.738 136.133 334.4 138.501 334.4 141.616V147.504C334.4 151.088 333.376 153.733 331.328 155.44C329.322 157.147 326.208 158 321.984 158ZM309.503 122.8V129.712H314.944C315.754 129.712 316.352 129.499 316.736 129.072C317.162 128.645 317.376 128.005 317.376 127.152V125.36C317.376 124.507 317.162 123.867 316.736 123.44C316.352 123.013 315.754 122.8 314.944 122.8H309.503ZM309.503 139.568V147.12H317.824C318.634 147.12 319.232 146.907 319.616 146.48C320.042 146.053 320.256 145.413 320.256 144.56V142.064C320.256 141.211 320.042 140.592 319.616 140.208C319.232 139.781 318.634 139.568 317.824 139.568H309.503ZM355.943 123.44V131.632H360.743C361.852 131.632 362.599 131.355 362.983 130.8C363.367 130.203 363.559 129.477 363.559 128.624V126.448C363.559 125.595 363.367 124.891 362.983 124.336C362.599 123.739 361.852 123.44 360.743 123.44H355.943ZM353.639 158H343.783C342.972 158 342.375 157.829 341.991 157.488C341.649 157.104 341.479 156.507 341.479 155.696V114.224C341.479 113.413 341.649 112.837 341.991 112.496C342.375 112.112 342.972 111.92 343.783 111.92H365.095C369.873 111.92 373.159 112.923 374.951 114.928C376.785 116.891 377.703 119.451 377.703 122.608V125.552C377.703 127.344 377.425 128.88 376.871 130.16C376.359 131.397 375.441 132.293 374.119 132.848C376.423 133.104 378.279 134.043 379.687 135.664C381.137 137.285 381.863 139.44 381.863 142.128V155.696C381.863 156.507 381.671 157.104 381.287 157.488C380.945 157.829 380.369 158 379.559 158H369.639C368.828 158 368.231 157.829 367.847 157.488C367.505 157.104 367.335 156.507 367.335 155.696V145.904C367.335 144.965 367.143 144.283 366.759 143.856C366.417 143.387 365.799 143.152 364.903 143.152H355.943V155.696C355.943 156.507 355.751 157.104 355.367 157.488C355.025 157.829 354.449 158 353.639 158ZM405.745 125.36L402.737 135.088H412.785L409.777 125.36C409.606 124.976 409.414 124.699 409.201 124.528C409.03 124.357 408.817 124.272 408.561 124.272H406.961C406.705 124.272 406.47 124.357 406.257 124.528C406.086 124.699 405.916 124.976 405.745 125.36ZM402.097 155.696C402.097 156.507 401.905 157.104 401.521 157.488C401.18 157.829 400.604 158 399.793 158H390.385C389.574 158 388.977 157.829 388.593 157.488C388.252 157.104 388.081 156.507 388.081 155.696V138.8C388.081 137.52 388.273 136.048 388.657 134.384C389.084 132.72 389.724 130.779 390.577 128.56L396.145 114.032C396.401 113.307 396.785 112.773 397.297 112.432C397.852 112.091 398.556 111.92 399.409 111.92H416.625C417.436 111.92 418.097 112.091 418.609 112.432C419.164 112.773 419.569 113.307 419.825 114.032L425.393 128.56C426.246 130.779 426.865 132.72 427.249 134.384C427.676 136.048 427.889 137.52 427.889 138.8V155.696C427.889 156.507 427.697 157.104 427.313 157.488C426.972 157.829 426.396 158 425.585 158H415.921C415.068 158 414.428 157.829 414.001 157.488C413.617 157.104 413.425 156.507 413.425 155.696V146.736H402.097V155.696ZM457.167 158H436.943C436.132 158 435.535 157.829 435.151 157.488C434.81 157.104 434.639 156.507 434.639 155.696V148.208C434.639 147.397 434.81 146.821 435.151 146.48C435.535 146.096 436.132 145.904 436.943 145.904H454.159C454.714 145.904 455.119 145.733 455.375 145.392C455.674 145.008 455.823 144.56 455.823 144.048C455.823 143.323 455.674 142.789 455.375 142.448C455.119 142.107 454.714 141.915 454.159 141.872L444.559 140.528C441.572 140.101 439.162 139.12 437.327 137.584C435.535 136.048 434.639 133.488 434.639 129.904V123.184C434.639 119.557 435.812 116.784 438.159 114.864C440.506 112.901 443.748 111.92 447.887 111.92H465.807C466.618 111.92 467.194 112.112 467.535 112.496C467.919 112.837 468.111 113.413 468.111 114.224V121.84C468.111 122.651 467.919 123.248 467.535 123.632C467.194 123.973 466.618 124.144 465.807 124.144H450.895C450.34 124.144 449.914 124.336 449.615 124.72C449.316 125.061 449.167 125.509 449.167 126.064C449.167 126.619 449.316 127.088 449.615 127.472C449.914 127.856 450.34 128.069 450.895 128.112L460.431 129.392C463.418 129.819 465.828 130.8 467.663 132.336C469.498 133.872 470.415 136.432 470.415 140.016V146.736C470.415 150.363 469.22 153.157 466.831 155.12C464.484 157.04 461.263 158 457.167 158ZM494.12 125.36L491.112 135.088H501.16L498.152 125.36C497.981 124.976 497.789 124.699 497.576 124.528C497.405 124.357 497.192 124.272 496.936 124.272H495.336C495.08 124.272 494.845 124.357 494.632 124.528C494.461 124.699 494.291 124.976 494.12 125.36ZM490.472 155.696C490.472 156.507 490.28 157.104 489.896 157.488C489.555 157.829 488.979 158 488.168 158H478.76C477.949 158 477.352 157.829 476.968 157.488C476.627 157.104 476.456 156.507 476.456 155.696V138.8C476.456 137.52 476.648 136.048 477.032 134.384C477.459 132.72 478.099 130.779 478.952 128.56L484.52 114.032C484.776 113.307 485.16 112.773 485.672 112.432C486.227 112.091 486.931 111.92 487.784 111.92H505C505.811 111.92 506.472 112.091 506.984 112.432C507.539 112.773 507.944 113.307 508.2 114.032L513.768 128.56C514.621 130.779 515.24 132.72 515.624 134.384C516.051 136.048 516.264 137.52 516.264 138.8V155.696C516.264 156.507 516.072 157.104 515.688 157.488C515.347 157.829 514.771 158 513.96 158H504.296C503.443 158 502.803 157.829 502.376 157.488C501.992 157.104 501.8 156.507 501.8 155.696V146.736H490.472V155.696Z" fill="#035E18"/>
<path d="M4.928 157.488L4.18059 158.152L4.21967 158.196L4.26364 158.235L4.928 157.488ZM4.928 112.496L4.22089 111.789L4.22089 111.789L4.928 112.496ZM18.688 112.368L18.1145 113.187L18.1326 113.2L18.1511 113.212L18.688 112.368ZM19.968 113.84L20.8434 113.357L20.8396 113.35L19.968 113.84ZM25.728 124.272L24.8526 124.755L24.8538 124.758L25.728 124.272ZM26.24 125.104L25.44 125.704L25.4826 125.761L25.5329 125.811L26.24 125.104ZM28.032 125.104L27.3249 124.397L27.2746 124.447L27.232 124.504L28.032 125.104ZM28.608 124.272L29.4822 124.758L29.4857 124.751L28.608 124.272ZM34.304 113.84L33.4324 113.35L33.4263 113.361L34.304 113.84ZM35.52 112.368L34.9831 111.524L34.9646 111.536L34.9465 111.549L35.52 112.368ZM49.344 112.496L48.5966 113.16L48.6357 113.204L48.6796 113.243L49.344 112.496ZM49.344 157.488L50.0511 158.195L50.0511 158.195L49.344 157.488ZM35.968 157.488L35.2206 158.152L35.2597 158.196L35.3036 158.235L35.968 157.488ZM35.456 133.168H36.456L34.5766 132.692L35.456 133.168ZM31.68 140.144L30.8005 139.668L30.7962 139.676L31.68 140.144ZM30.272 141.744L30.7759 142.608L30.7861 142.602L30.7961 142.596L30.272 141.744ZM23.68 141.744L23.1253 142.576L23.1645 142.602L23.2059 142.624L23.68 141.744ZM22.336 140.144L23.2198 139.676L23.2154 139.668L22.336 140.144ZM18.56 133.168L19.4394 132.692L17.56 133.168H18.56ZM17.984 157.488L18.6911 158.195L18.6911 158.195L17.984 157.488ZM16.256 157H6.72V159H16.256V157ZM6.72 157C6.01956 157 5.71291 156.848 5.59236 156.741L4.26364 158.235C4.91109 158.811 5.7991 159 6.72 159V157ZM5.67541 156.824C5.56826 156.703 5.416 156.396 5.416 155.696H3.416C3.416 156.617 3.60507 157.505 4.18059 158.152L5.67541 156.824ZM5.416 155.696V114.224H3.416V155.696H5.416ZM5.416 114.224C5.416 113.509 5.57443 113.264 5.63511 113.203L4.22089 111.789C3.59891 112.411 3.416 113.318 3.416 114.224H5.416ZM5.63511 113.203C5.75651 113.082 6.04515 112.92 6.72 112.92V110.92C5.77352 110.92 4.86749 111.142 4.22089 111.789L5.63511 113.203ZM6.72 112.92H17.024V110.92H6.72V112.92ZM17.024 112.92C17.5647 112.92 17.9012 113.038 18.1145 113.187L19.2615 111.549C18.6215 111.101 17.8486 110.92 17.024 110.92V112.92ZM18.1511 113.212C18.4364 113.393 18.7621 113.736 19.0964 114.33L20.8396 113.35C20.4059 112.579 19.8783 111.94 19.2249 111.524L18.1511 113.212ZM19.0926 114.323L24.8526 124.755L26.6034 123.789L20.8434 113.357L19.0926 114.323ZM24.8538 124.758C25.0713 125.149 25.269 125.476 25.44 125.704L27.04 124.504C26.955 124.391 26.8114 124.163 26.6022 123.786L24.8538 124.758ZM25.5329 125.811C25.9034 126.182 26.3766 126.36 26.88 126.36V124.36C26.8647 124.36 26.8752 124.358 26.8994 124.368C26.9106 124.372 26.9213 124.378 26.9307 124.384C26.9399 124.39 26.9453 124.395 26.9471 124.397L25.5329 125.811ZM26.88 126.36H27.456V124.36H26.88V126.36ZM27.456 126.36C27.956 126.36 28.4764 126.178 28.832 125.704L27.232 124.504C27.2687 124.455 27.3235 124.41 27.3859 124.382C27.4425 124.357 27.474 124.36 27.456 124.36V126.36ZM28.7391 125.811C29.0086 125.542 29.2542 125.168 29.4822 124.758L27.7338 123.786C27.5352 124.144 27.3968 124.325 27.3249 124.397L28.7391 125.811ZM29.4857 124.751L35.1817 114.319L33.4263 113.361L27.7303 123.793L29.4857 124.751ZM35.1756 114.33C35.5199 113.718 35.8357 113.368 36.0935 113.187L34.9465 111.549C34.351 111.966 33.8561 112.596 33.4324 113.35L35.1756 114.33ZM36.0569 113.212C36.3328 113.036 36.7122 112.92 37.248 112.92V110.92C36.4185 110.92 35.6459 111.103 34.9831 111.524L36.0569 113.212ZM37.248 112.92H47.616V110.92H37.248V112.92ZM47.616 112.92C48.3038 112.92 48.5314 113.087 48.5966 113.16L50.0914 111.832C49.4739 111.137 48.5495 110.92 47.616 110.92V112.92ZM48.6796 113.243C48.753 113.309 48.92 113.536 48.92 114.224H50.92C50.92 113.29 50.703 112.366 50.0084 111.749L48.6796 113.243ZM48.92 114.224V155.696H50.92V114.224H48.92ZM48.92 155.696C48.92 156.371 48.7583 156.659 48.6369 156.781L50.0511 158.195C50.6977 157.549 50.92 156.642 50.92 155.696H48.92ZM48.6369 156.781C48.5762 156.842 48.3313 157 47.616 157V159C48.5221 159 49.4291 158.817 50.0511 158.195L48.6369 156.781ZM47.616 157H37.76V159H47.616V157ZM37.76 157C37.0596 157 36.7529 156.848 36.6324 156.741L35.3036 158.235C35.9511 158.811 36.8391 159 37.76 159V157ZM36.7154 156.824C36.6083 156.703 36.456 156.396 36.456 155.696H34.456C34.456 156.617 34.6451 157.505 35.2206 158.152L36.7154 156.824ZM36.456 155.696V133.168H34.456V155.696H36.456ZM34.5766 132.692L30.8006 139.668L32.5594 140.62L36.3354 133.644L34.5766 132.692ZM30.7962 139.676C30.4743 140.284 30.1158 140.666 29.7479 140.892L30.7961 142.596C31.5375 142.139 32.1177 141.454 32.5638 140.612L30.7962 139.676ZM29.7681 140.88C29.4552 141.063 28.984 141.192 28.288 141.192V143.192C29.2133 143.192 30.0648 143.023 30.7759 142.608L29.7681 140.88ZM28.288 141.192H25.728V143.192H28.288V141.192ZM25.728 141.192C25.0366 141.192 24.5272 141.064 24.1541 140.864L23.2059 142.624C23.9421 143.021 24.798 143.192 25.728 143.192V141.192ZM24.2347 140.912C23.8994 140.688 23.551 140.302 23.2198 139.676L21.4522 140.612C21.889 141.437 22.4366 142.117 23.1253 142.576L24.2347 140.912ZM23.2154 139.668L19.4394 132.692L17.6806 133.644L21.4566 140.62L23.2154 139.668ZM17.56 133.168V155.696H19.56V133.168H17.56ZM17.56 155.696C17.56 156.371 17.3983 156.659 17.2769 156.781L18.6911 158.195C19.3377 157.549 19.56 156.642 19.56 155.696H17.56ZM17.2769 156.781C17.2162 156.842 16.9713 157 16.256 157V159C17.1621 159 18.0691 158.817 18.6911 158.195L17.2769 156.781ZM75.4325 125.36L74.5187 124.954L74.4946 125.008L74.4771 125.065L75.4325 125.36ZM72.4245 135.088L71.4691 134.793L71.0686 136.088H72.4245V135.088ZM82.4725 135.088V136.088H83.8284L83.4279 134.793L82.4725 135.088ZM79.4645 125.36L80.4199 125.065L80.4024 125.008L80.3783 124.954L79.4645 125.36ZM78.8885 124.528L78.1814 125.235L78.2206 125.274L78.2638 125.309L78.8885 124.528ZM75.9445 124.528L75.3198 123.747L75.2766 123.782L75.2374 123.821L75.9445 124.528ZM71.2085 157.488L70.5014 156.781L70.5014 156.781L71.2085 157.488ZM58.2805 157.488L57.5331 158.152L57.5722 158.196L57.6161 158.235L58.2805 157.488ZM58.3445 134.384L57.3758 134.136L57.3728 134.147L57.3701 134.159L58.3445 134.384ZM60.2645 128.56L61.1978 128.919L61.1983 128.918L60.2645 128.56ZM65.8325 114.032L66.7663 114.39L66.771 114.377L66.7755 114.365L65.8325 114.032ZM66.9845 112.432L66.4604 111.58L66.4449 111.59L66.4298 111.6L66.9845 112.432ZM88.2965 112.432L87.7418 113.264L87.7569 113.274L87.7724 113.284L88.2965 112.432ZM89.5125 114.032L88.5695 114.365L88.574 114.377L88.5787 114.39L89.5125 114.032ZM95.0805 128.56L94.1467 128.918L94.1472 128.919L95.0805 128.56ZM96.9365 134.384L95.9621 134.609L95.9648 134.621L95.9678 134.632L96.9365 134.384ZM97.0005 157.488L97.7076 158.195L97.7076 158.195L97.0005 157.488ZM83.6885 157.488L82.9814 158.195L83.0206 158.234L83.0638 158.269L83.6885 157.488ZM83.1125 146.736H84.1125V145.736H83.1125V146.736ZM71.7845 146.736V145.736H70.7845V146.736H71.7845ZM74.4771 125.065L71.4691 134.793L73.3799 135.383L76.3879 125.655L74.4771 125.065ZM72.4245 136.088H82.4725V134.088H72.4245V136.088ZM83.4279 134.793L80.4199 125.065L78.5091 125.655L81.5171 135.383L83.4279 134.793ZM80.3783 124.954C80.1744 124.495 79.9009 124.057 79.5132 123.747L78.2638 125.309C78.3028 125.34 78.4132 125.457 78.5507 125.766L80.3783 124.954ZM79.5956 123.821C79.2251 123.45 78.7519 123.272 78.2485 123.272V125.272C78.2638 125.272 78.2533 125.274 78.2291 125.264C78.2179 125.26 78.2072 125.254 78.1978 125.248C78.1886 125.242 78.1832 125.237 78.1814 125.235L79.5956 123.821ZM78.2485 123.272H76.6485V125.272H78.2485V123.272ZM76.6485 123.272C76.1496 123.272 75.6977 123.445 75.3198 123.747L76.5692 125.309C76.618 125.27 76.6354 125.272 76.6485 125.272V123.272ZM75.2374 123.821C74.9384 124.12 74.7079 124.528 74.5187 124.954L76.3463 125.766C76.4985 125.424 76.6093 125.277 76.6516 125.235L75.2374 123.821ZM70.7845 155.696C70.7845 156.371 70.6228 156.659 70.5014 156.781L71.9156 158.195C72.5622 157.549 72.7845 156.642 72.7845 155.696H70.7845ZM70.5014 156.781C70.4407 156.842 70.1958 157 69.4805 157V159C70.3866 159 71.2936 158.817 71.9156 158.195L70.5014 156.781ZM69.4805 157H60.0725V159H69.4805V157ZM60.0725 157C59.3721 157 59.0654 156.848 58.9449 156.741L57.6161 158.235C58.2636 158.811 59.1516 159 60.0725 159V157ZM59.0279 156.824C58.9208 156.703 58.7685 156.396 58.7685 155.696H56.7685C56.7685 156.617 56.9576 157.505 57.5331 158.152L59.0279 156.824ZM58.7685 155.696V138.8H56.7685V155.696H58.7685ZM58.7685 138.8C58.7685 137.616 58.9466 136.222 59.3189 134.609L57.3701 134.159C56.9744 135.874 56.7685 137.424 56.7685 138.8H58.7685ZM59.3132 134.632C59.7274 133.017 60.3536 131.114 61.1978 128.919L59.3312 128.201C58.4688 130.443 57.815 132.423 57.3758 134.136L59.3132 134.632ZM61.1983 128.918L66.7663 114.39L64.8987 113.674L59.3307 128.202L61.1983 128.918ZM66.7755 114.365C66.9778 113.792 67.2481 113.458 67.5392 113.264L66.4298 111.6C65.6969 112.089 65.1992 112.822 64.8895 113.699L66.7755 114.365ZM67.5086 113.284C67.8638 113.065 68.3721 112.92 69.0965 112.92V110.92C68.1143 110.92 67.2145 111.116 66.4604 111.58L67.5086 113.284ZM69.0965 112.92H86.3125V110.92H69.0965V112.92ZM86.3125 112.92C86.9874 112.92 87.4388 113.062 87.7418 113.264L88.8512 111.6C88.1302 111.119 87.2589 110.92 86.3125 110.92V112.92ZM87.7724 113.284C88.0983 113.484 88.3753 113.815 88.5695 114.365L90.4555 113.699C90.1377 112.799 89.604 112.062 88.8206 111.58L87.7724 113.284ZM88.5787 114.39L94.1467 128.918L96.0143 128.202L90.4463 113.674L88.5787 114.39ZM94.1472 128.919C94.9897 131.11 95.5918 133.004 95.9621 134.609L97.9109 134.159C97.5132 132.436 96.878 130.448 96.0138 128.201L94.1472 128.919ZM95.9678 134.632C96.3803 136.241 96.5765 137.627 96.5765 138.8H98.5765C98.5765 137.413 98.346 135.855 97.9052 134.136L95.9678 134.632ZM96.5765 138.8V155.696H98.5765V138.8H96.5765ZM96.5765 155.696C96.5765 156.371 96.4148 156.659 96.2934 156.781L97.7076 158.195C98.3542 157.549 98.5765 156.642 98.5765 155.696H96.5765ZM96.2934 156.781C96.2327 156.842 95.9878 157 95.2725 157V159C96.1786 159 97.0856 158.817 97.7076 158.195L96.2934 156.781ZM95.2725 157H85.6085V159H95.2725V157ZM85.6085 157C84.862 157 84.4872 156.846 84.3132 156.707L83.0638 158.269C83.7431 158.812 84.6483 159 85.6085 159V157ZM84.3956 156.781C84.2742 156.659 84.1125 156.371 84.1125 155.696H82.1125C82.1125 156.642 82.3348 157.549 82.9814 158.195L84.3956 156.781ZM84.1125 155.696V146.736H82.1125V155.696H84.1125ZM83.1125 145.736H71.7845V147.736H83.1125V145.736ZM70.7845 146.736V155.696H72.7845V146.736H70.7845ZM119.943 123.44V122.44H118.943V123.44H119.943ZM119.943 131.632H118.943V132.632H119.943V131.632ZM126.983 130.8L127.805 131.369L127.814 131.355L127.824 131.341L126.983 130.8ZM126.983 124.336L126.141 124.877L126.151 124.891L126.16 124.905L126.983 124.336ZM105.991 157.488L105.243 158.152L105.282 158.196L105.326 158.235L105.991 157.488ZM105.991 112.496L105.283 111.789L105.283 111.789L105.991 112.496ZM138.951 114.928L138.205 115.594L138.212 115.603L138.22 115.611L138.951 114.928ZM140.871 130.16L139.953 129.762L139.95 129.77L139.946 129.778L140.871 130.16ZM138.119 132.848L137.732 131.926L134.178 133.416L138.008 133.842L138.119 132.848ZM143.687 135.664L142.931 136.32L142.936 136.325L142.941 136.331L143.687 135.664ZM145.287 157.488L145.994 158.195L145.994 158.195L145.287 157.488ZM131.847 157.488L131.099 158.152L131.138 158.196L131.182 158.235L131.847 157.488ZM130.759 143.856L129.95 144.444L129.98 144.486L130.015 144.525L130.759 143.856ZM119.943 143.152V142.152H118.943V143.152H119.943ZM119.367 157.488L118.659 156.781L118.659 156.781L119.367 157.488ZM118.943 123.44V131.632H120.943V123.44H118.943ZM119.943 132.632H124.743V130.632H119.943V132.632ZM124.743 132.632C125.966 132.632 127.139 132.331 127.805 131.369L126.16 130.231C126.058 130.378 125.737 130.632 124.743 130.632V132.632ZM127.824 131.341C128.331 130.552 128.559 129.63 128.559 128.624H126.559C126.559 129.325 126.402 129.853 126.141 130.259L127.824 131.341ZM128.559 128.624V126.448H126.559V128.624H128.559ZM128.559 126.448C128.559 125.445 128.332 124.528 127.805 123.767L126.16 124.905C126.401 125.253 126.559 125.744 126.559 126.448H128.559ZM127.824 123.795C127.169 122.776 125.992 122.44 124.743 122.44V124.44C125.712 124.44 126.028 124.701 126.141 124.877L127.824 123.795ZM124.743 122.44H119.943V124.44H124.743V122.44ZM117.639 157H107.783V159H117.639V157ZM107.783 157C107.082 157 106.775 156.848 106.655 156.741L105.326 158.235C105.974 158.811 106.862 159 107.783 159V157ZM106.738 156.824C106.631 156.703 106.479 156.396 106.479 155.696H104.479C104.479 156.617 104.668 157.505 105.243 158.152L106.738 156.824ZM106.479 155.696V114.224H104.479V155.696H106.479ZM106.479 114.224C106.479 113.509 106.637 113.264 106.698 113.203L105.283 111.789C104.661 112.411 104.479 113.318 104.479 114.224H106.479ZM106.698 113.203C106.819 113.082 107.108 112.92 107.783 112.92V110.92C106.836 110.92 105.93 111.142 105.283 111.789L106.698 113.203ZM107.783 112.92H129.095V110.92H107.783V112.92ZM129.095 112.92C133.795 112.92 136.707 113.918 138.205 115.594L139.696 114.262C137.61 111.928 133.951 110.92 129.095 110.92V112.92ZM138.22 115.611C139.852 117.356 140.703 119.657 140.703 122.608H142.703C142.703 119.244 141.719 116.425 139.681 114.245L138.22 115.611ZM140.703 122.608V125.552H142.703V122.608H140.703ZM140.703 125.552C140.703 127.245 140.44 128.638 139.953 129.762L141.788 130.558C142.41 129.122 142.703 127.443 142.703 125.552H140.703ZM139.946 129.778C139.543 130.753 138.83 131.465 137.732 131.926L138.505 133.77C140.052 133.122 141.174 132.042 141.795 130.542L139.946 129.778ZM138.008 133.842C140.084 134.073 141.702 134.904 142.931 136.32L144.442 135.008C142.855 133.181 140.761 132.135 138.229 131.854L138.008 133.842ZM142.941 136.331C144.192 137.728 144.863 139.626 144.863 142.128H146.863C146.863 139.254 146.083 136.842 144.432 134.997L142.941 136.331ZM144.863 142.128V155.696H146.863V142.128H144.863ZM144.863 155.696C144.863 156.371 144.701 156.659 144.579 156.781L145.994 158.195C146.64 157.549 146.863 156.642 146.863 155.696H144.863ZM144.579 156.781C144.519 156.842 144.274 157 143.559 157V159C144.465 159 145.372 158.817 145.994 158.195L144.579 156.781ZM143.559 157H133.639V159H143.559V157ZM133.639 157C132.938 157 132.631 156.848 132.511 156.741L131.182 158.235C131.83 158.811 132.718 159 133.639 159V157ZM132.594 156.824C132.487 156.703 132.335 156.396 132.335 155.696H130.335C130.335 156.617 130.524 157.505 131.099 158.152L132.594 156.824ZM132.335 155.696V145.904H130.335V155.696H132.335ZM132.335 145.904C132.335 144.866 132.128 143.883 131.502 143.187L130.015 144.525C130.157 144.682 130.335 145.065 130.335 145.904H132.335ZM131.567 143.268C130.953 142.423 129.939 142.152 128.903 142.152V144.152C129.658 144.152 129.882 144.351 129.95 144.444L131.567 143.268ZM128.903 142.152H119.943V144.152H128.903V142.152ZM118.943 143.152V155.696H120.943V143.152H118.943ZM118.943 155.696C118.943 156.371 118.781 156.659 118.659 156.781L120.074 158.195C120.72 157.549 120.943 156.642 120.943 155.696H118.943ZM118.659 156.781C118.599 156.842 118.354 157 117.639 157V159C118.545 159 119.452 158.817 120.074 158.195L118.659 156.781ZM191.377 151.28L190.439 150.934L190.436 150.941L190.434 150.949L191.377 151.28ZM188.305 155.376L188.912 156.17L188.916 156.168L188.305 155.376ZM162.705 158L162.948 157.03L162.948 157.03L162.705 158ZM156.625 155.376L156.003 156.159L156.016 156.169L156.029 156.179L156.625 155.376ZM153.553 151.28L152.607 151.604L152.612 151.619L152.618 151.634L153.553 151.28ZM153.233 112.496L152.526 111.789L152.526 111.789L153.233 112.496ZM166.801 112.496L166.054 113.16L166.093 113.204L166.137 113.243L166.801 112.496ZM168.337 145.584L167.655 146.315L167.668 146.328L167.682 146.34L168.337 145.584ZM176.977 145.584L177.632 146.34L177.646 146.328L177.659 146.315L176.977 145.584ZM178.449 112.496L177.742 111.789L177.742 111.789L178.449 112.496ZM191.697 112.496L190.95 113.16L190.989 113.204L191.033 113.243L191.697 112.496ZM191.273 145.904C191.273 147.765 190.99 149.438 190.439 150.934L192.315 151.626C192.959 149.88 193.273 147.969 193.273 145.904H191.273ZM190.434 150.949C189.951 152.322 189.055 153.535 187.694 154.584L188.916 156.168C190.542 154.913 191.694 153.395 192.32 151.611L190.434 150.949ZM187.698 154.582C186.392 155.58 184.528 156.409 182.046 157.03L182.532 158.97C185.17 158.311 187.316 157.391 188.912 156.17L187.698 154.582ZM182.046 157.03C179.595 157.643 176.42 157.96 172.497 157.96V159.96C176.51 159.96 179.863 159.637 182.532 158.97L182.046 157.03ZM172.497 157.96C168.574 157.96 165.399 157.643 162.948 157.03L162.462 158.97C165.131 159.637 168.484 159.96 172.497 159.96V157.96ZM162.948 157.03C160.466 156.409 158.574 155.578 157.221 154.573L156.029 156.179C157.662 157.392 159.824 158.311 162.462 158.97L162.948 157.03ZM157.247 154.593C155.923 153.542 155.016 152.32 154.488 150.926L152.618 151.634C153.285 153.397 154.425 154.906 156.003 156.159L157.247 154.593ZM154.499 150.956C153.985 149.453 153.721 147.772 153.721 145.904H151.721C151.721 147.961 152.012 149.864 152.607 151.604L154.499 150.956ZM153.721 145.904V114.224H151.721V145.904H153.721ZM153.721 114.224C153.721 113.509 153.879 113.264 153.94 113.203L152.526 111.789C151.904 112.411 151.721 113.318 151.721 114.224H153.721ZM153.94 113.203C154.062 113.082 154.35 112.92 155.025 112.92V110.92C154.079 110.92 153.172 111.142 152.526 111.789L153.94 113.203ZM155.025 112.92H165.073V110.92H155.025V112.92ZM165.073 112.92C165.761 112.92 165.988 113.087 166.054 113.16L167.548 111.832C166.931 111.137 166.007 110.92 165.073 110.92V112.92ZM166.137 113.243C166.21 113.309 166.377 113.536 166.377 114.224H168.377C168.377 113.29 168.16 112.366 167.465 111.749L166.137 113.243ZM166.377 114.224V143.408H168.377V114.224H166.377ZM166.377 143.408C166.377 144.547 166.818 145.534 167.655 146.315L169.019 144.853C168.576 144.439 168.377 143.976 168.377 143.408H166.377ZM167.682 146.34C168.198 146.787 168.92 147.039 169.699 147.19C170.499 147.345 171.481 147.416 172.625 147.416V145.416C171.55 145.416 170.708 145.348 170.079 145.226C169.429 145.1 169.116 144.936 168.992 144.828L167.682 146.34ZM172.625 147.416C173.789 147.416 174.786 147.345 175.597 147.19C176.383 147.04 177.113 146.789 177.632 146.34L176.322 144.828C176.201 144.933 175.886 145.099 175.221 145.226C174.581 145.348 173.722 145.416 172.625 145.416V147.416ZM177.659 146.315C178.496 145.534 178.937 144.547 178.937 143.408H176.937C176.937 143.976 176.738 144.439 176.295 144.853L177.659 146.315ZM178.937 143.408V114.224H176.937V143.408H178.937ZM178.937 114.224C178.937 113.509 179.095 113.264 179.156 113.203L177.742 111.789C177.12 112.411 176.937 113.318 176.937 114.224H178.937ZM179.156 113.203C179.278 113.082 179.566 112.92 180.241 112.92V110.92C179.295 110.92 178.388 111.142 177.742 111.789L179.156 113.203ZM180.241 112.92H189.969V110.92H180.241V112.92ZM189.969 112.92C190.657 112.92 190.884 113.087 190.95 113.16L192.444 111.832C191.827 111.137 190.903 110.92 189.969 110.92V112.92ZM191.033 113.243C191.106 113.309 191.273 113.536 191.273 114.224H193.273C193.273 113.29 193.056 112.366 192.361 111.749L191.033 113.243ZM191.273 114.224V145.904H193.273V114.224H191.273ZM201.239 135.408L200.492 136.072L200.531 136.116L200.575 136.155L201.239 135.408ZM201.239 129.328L201.946 130.035L201.946 130.035L201.239 129.328ZM208.727 128.304L209.434 129.011L209.458 128.988L209.48 128.963L208.727 128.304ZM209.175 126H210.175V125H209.175V126ZM200.407 125.488L199.66 126.152L199.699 126.196L199.743 126.235L200.407 125.488ZM200.407 112.496L199.7 111.789L199.7 111.789L200.407 112.496ZM216.855 112.496L216.108 113.16L216.147 113.204L216.191 113.243L216.855 112.496ZM214.807 133.552L215.486 134.286L215.487 134.285L214.807 133.552ZM207.959 134.92H203.031V136.92H207.959V134.92ZM203.031 134.92C202.331 134.92 202.024 134.768 201.903 134.661L200.575 136.155C201.222 136.731 202.11 136.92 203.031 136.92V134.92ZM201.986 134.744C201.879 134.623 201.727 134.316 201.727 133.616H199.727C199.727 134.537 199.916 135.425 200.492 136.072L201.986 134.744ZM201.727 133.616V131.056H199.727V133.616H201.727ZM201.727 131.056C201.727 130.341 201.885 130.096 201.946 130.035L200.532 128.621C199.91 129.243 199.727 130.15 199.727 131.056H201.727ZM201.946 130.035C202.068 129.914 202.356 129.752 203.031 129.752V127.752C202.085 127.752 201.178 127.974 200.532 128.621L201.946 130.035ZM203.031 129.752H207.447V127.752H203.031V129.752ZM207.447 129.752C208.181 129.752 208.895 129.551 209.434 129.011L208.02 127.597C207.962 127.655 207.823 127.752 207.447 127.752V129.752ZM209.48 128.963C209.971 128.401 210.175 127.701 210.175 126.96H208.175C208.175 127.329 208.08 127.525 207.974 127.645L209.48 128.963ZM210.175 126.96V126H208.175V126.96H210.175ZM209.175 125H202.199V127H209.175V125ZM202.199 125C201.499 125 201.192 124.848 201.071 124.741L199.743 126.235C200.39 126.811 201.278 127 202.199 127V125ZM201.154 124.824C201.047 124.703 200.895 124.396 200.895 123.696H198.895C198.895 124.617 199.084 125.505 199.66 126.152L201.154 124.824ZM200.895 123.696V114.224H198.895V123.696H200.895ZM200.895 114.224C200.895 113.509 201.053 113.264 201.114 113.203L199.7 111.789C199.078 112.411 198.895 113.318 198.895 114.224H200.895ZM201.114 113.203C201.236 113.082 201.524 112.92 202.199 112.92V110.92C201.253 110.92 200.346 111.142 199.7 111.789L201.114 113.203ZM202.199 112.92H215.127V110.92H202.199V112.92ZM215.127 112.92C215.815 112.92 216.042 113.087 216.108 113.16L217.602 111.832C216.985 111.137 216.061 110.92 215.127 110.92V112.92ZM216.191 113.243C216.264 113.309 216.431 113.536 216.431 114.224H218.431C218.431 113.29 218.214 112.366 217.519 111.749L216.191 113.243ZM216.431 114.224V126.256H218.431V114.224H216.431ZM216.431 126.256C216.431 129.324 215.607 131.447 214.127 132.819L215.487 134.285C217.506 132.414 218.431 129.673 218.431 126.256H216.431ZM214.128 132.818C212.646 134.188 210.627 134.92 207.959 134.92V136.92C211.009 136.92 213.554 136.073 215.486 134.286L214.128 132.818ZM224.089 157.488L223.341 158.152L223.38 158.196L223.424 158.235L224.089 157.488ZM224.089 146.48L224.796 147.187L224.796 147.187L224.089 146.48ZM244.313 145.392L243.523 144.778L243.518 144.785L243.513 144.792L244.313 145.392ZM244.313 142.448L243.513 143.048L243.535 143.078L243.56 143.107L244.313 142.448ZM243.097 141.872L242.958 142.862L242.989 142.867L243.02 142.869L243.097 141.872ZM233.497 140.528L233.355 141.518L233.358 141.518L233.497 140.528ZM226.265 137.584L225.614 138.343L225.623 138.351L226.265 137.584ZM227.097 114.864L227.73 115.638L227.738 115.631L227.097 114.864ZM256.472 112.496L255.725 113.16L255.764 113.204L255.808 113.243L256.472 112.496ZM238.553 124.72L239.305 125.379L239.324 125.357L239.342 125.334L238.553 124.72ZM239.833 128.112L239.966 127.121L239.937 127.117L239.909 127.115L239.833 128.112ZM249.369 129.392L249.51 128.402L249.502 128.401L249.369 129.392ZM256.601 132.336L257.242 131.569L257.242 131.569L256.601 132.336ZM255.769 155.12L256.402 155.894L256.403 155.893L255.769 155.12ZM246.105 157H225.881V159H246.105V157ZM225.881 157C225.18 157 224.873 156.848 224.753 156.741L223.424 158.235C224.072 158.811 224.96 159 225.881 159V157ZM224.836 156.824C224.729 156.703 224.577 156.396 224.577 155.696H222.577C222.577 156.617 222.766 157.505 223.341 158.152L224.836 156.824ZM224.577 155.696V148.208H222.577V155.696H224.577ZM224.577 148.208C224.577 147.493 224.735 147.248 224.796 147.187L223.381 145.773C222.759 146.395 222.577 147.302 222.577 148.208H224.577ZM224.796 147.187C224.917 147.066 225.206 146.904 225.881 146.904V144.904C224.934 144.904 224.028 145.126 223.381 145.773L224.796 147.187ZM225.881 146.904H243.097V144.904H225.881V146.904ZM243.097 146.904C243.863 146.904 244.613 146.658 245.113 145.992L243.513 144.792C243.5 144.809 243.44 144.904 243.097 144.904V146.904ZM245.102 146.006C245.545 145.437 245.761 144.77 245.761 144.048H243.761C243.761 144.35 243.678 144.579 243.523 144.778L245.102 146.006ZM245.761 144.048C245.761 143.218 245.595 142.395 245.065 141.789L243.56 143.107C243.627 143.184 243.761 143.428 243.761 144.048H245.761ZM245.113 141.848C244.635 141.211 243.922 140.933 243.173 140.875L243.02 142.869C243.38 142.897 243.478 143.002 243.513 143.048L245.113 141.848ZM243.235 140.882L233.635 139.538L233.358 141.518L242.958 142.862L243.235 140.882ZM233.638 139.538C230.788 139.131 228.565 138.206 226.906 136.817L225.623 138.351C227.633 140.034 230.232 141.072 233.355 141.518L233.638 139.538ZM226.915 136.825C225.439 135.56 224.577 133.349 224.577 129.904H222.577C222.577 133.627 223.506 136.536 225.614 138.343L226.915 136.825ZM224.577 129.904V123.184H222.577V129.904H224.577ZM224.577 123.184C224.577 119.792 225.661 117.33 227.73 115.638L226.463 114.09C223.838 116.238 222.577 119.323 222.577 123.184H224.577ZM227.738 115.631C229.85 113.865 232.837 112.92 236.825 112.92V110.92C232.534 110.92 229.036 111.938 226.455 114.097L227.738 115.631ZM236.825 112.92H254.745V110.92H236.825V112.92ZM254.745 112.92C255.432 112.92 255.66 113.087 255.725 113.16L257.22 111.832C256.602 111.137 255.678 110.92 254.745 110.92V112.92ZM255.808 113.243C255.881 113.309 256.049 113.536 256.049 114.224H258.049C258.049 113.29 257.832 112.366 257.137 111.749L255.808 113.243ZM256.049 114.224V121.84H258.049V114.224H256.049ZM256.049 121.84C256.049 122.515 255.887 122.803 255.765 122.925L257.18 124.339C257.826 123.693 258.049 122.786 258.049 121.84H256.049ZM255.765 122.925C255.705 122.986 255.46 123.144 254.745 123.144V125.144C255.651 125.144 256.558 124.961 257.18 124.339L255.765 122.925ZM254.745 123.144H239.833V125.144H254.745V123.144ZM239.833 123.144C239.018 123.144 238.279 123.442 237.763 124.106L239.342 125.334C239.423 125.23 239.537 125.144 239.833 125.144V123.144ZM237.8 124.061C237.308 124.623 237.105 125.323 237.105 126.064H239.105C239.105 125.695 239.199 125.499 239.305 125.379L237.8 124.061ZM237.105 126.064C237.105 126.808 237.309 127.502 237.763 128.086L239.342 126.858C239.199 126.674 239.105 126.429 239.105 126.064H237.105ZM237.763 128.086C238.26 128.725 238.965 129.048 239.756 129.109L239.909 127.115C239.591 127.09 239.442 126.987 239.342 126.858L237.763 128.086ZM239.699 129.103L249.235 130.383L249.502 128.401L239.966 127.121L239.699 129.103ZM249.227 130.382C252.077 130.789 254.3 131.714 255.959 133.103L257.242 131.569C255.232 129.886 252.633 128.848 249.51 128.402L249.227 130.382ZM255.959 133.103C257.472 134.37 258.353 136.578 258.353 140.016H260.353C260.353 136.286 259.398 133.374 257.242 131.569L255.959 133.103ZM258.353 140.016V146.736H260.353V140.016H258.353ZM258.353 146.736C258.353 150.121 257.251 152.608 255.134 154.347L256.403 155.893C259.065 153.706 260.353 150.604 260.353 146.736H258.353ZM255.135 154.346C253.021 156.076 250.051 157 246.105 157V159C250.35 159 253.822 158.004 256.402 155.894L255.135 154.346ZM295.616 157.488L294.868 158.152L294.907 158.196L294.951 158.235L295.616 157.488ZM295.616 112.496L294.908 111.789L294.908 111.789L295.616 112.496ZM327.104 114.352L326.475 115.13L326.485 115.138L327.104 114.352ZM329.152 129.2L328.277 128.714L328.271 128.726L329.152 129.2ZM326.336 131.696L325.938 130.778L326.242 132.692L326.336 131.696ZM332.416 134.512L331.641 135.144L331.641 135.144L332.416 134.512ZM331.328 155.44L330.687 154.672L330.679 154.678L331.328 155.44ZM309.503 122.8V121.8H308.503V122.8H309.503ZM309.503 129.712H308.503V130.712H309.503V129.712ZM316.736 129.072L316.028 128.365L316.01 128.383L315.992 128.403L316.736 129.072ZM316.736 123.44L315.992 124.109L316.01 124.129L316.028 124.147L316.736 123.44ZM309.503 139.568V138.568H308.503V139.568H309.503ZM309.503 147.12H308.503V148.12H309.503V147.12ZM319.616 146.48L318.908 145.773L318.89 145.791L318.872 145.811L319.616 146.48ZM319.616 140.208L318.872 140.877L318.907 140.916L318.947 140.951L319.616 140.208ZM321.984 157H297.408V159H321.984V157ZM297.408 157C296.707 157 296.4 156.848 296.28 156.741L294.951 158.235C295.599 158.811 296.487 159 297.408 159V157ZM296.363 156.824C296.256 156.703 296.104 156.396 296.104 155.696H294.104C294.104 156.617 294.293 157.505 294.868 158.152L296.363 156.824ZM296.104 155.696V114.224H294.104V155.696H296.104ZM296.104 114.224C296.104 113.509 296.262 113.264 296.323 113.203L294.908 111.789C294.286 112.411 294.104 113.318 294.104 114.224H296.104ZM296.323 113.203C296.444 113.082 296.733 112.92 297.408 112.92V110.92C296.461 110.92 295.555 111.142 294.908 111.789L296.323 113.203ZM297.408 112.92H317.824V110.92H297.408V112.92ZM317.824 112.92C321.908 112.92 324.728 113.718 326.475 115.13L327.732 113.574C325.468 111.744 322.102 110.92 317.824 110.92V112.92ZM326.485 115.138C328.18 116.472 329.112 118.59 329.112 121.712H331.112C331.112 118.178 330.038 115.389 327.722 113.566L326.485 115.138ZM329.112 121.712V124.784H331.112V121.712H329.112ZM329.112 124.784C329.112 126.465 328.81 127.755 328.277 128.714L330.026 129.686C330.773 128.341 331.112 126.687 331.112 124.784H329.112ZM328.271 128.726C327.792 129.616 327.035 130.303 325.938 130.778L326.733 132.614C328.196 131.98 329.317 131.003 330.032 129.674L328.271 128.726ZM326.242 132.692C328.792 132.931 330.535 133.789 331.641 135.144L333.19 133.88C331.65 131.992 329.34 130.973 326.429 130.7L326.242 132.692ZM331.641 135.144C332.761 136.518 333.4 138.623 333.4 141.616H335.4C335.4 138.379 334.715 135.749 333.19 133.88L331.641 135.144ZM333.4 141.616V147.504H335.4V141.616H333.4ZM333.4 147.504C333.4 150.9 332.435 153.215 330.687 154.672L331.968 156.208C334.316 154.252 335.4 151.276 335.4 147.504H333.4ZM330.679 154.678C328.936 156.162 326.105 157 321.984 157V159C326.31 159 329.708 158.131 331.976 156.202L330.679 154.678ZM308.503 122.8V129.712H310.503V122.8H308.503ZM309.503 130.712H314.944V128.712H309.503V130.712ZM314.944 130.712C315.917 130.712 316.837 130.454 317.479 129.741L315.992 128.403C315.866 128.544 315.591 128.712 314.944 128.712V130.712ZM317.443 129.779C318.123 129.099 318.376 128.159 318.376 127.152H316.376C316.376 127.851 316.201 128.192 316.028 128.365L317.443 129.779ZM318.376 127.152V125.36H316.376V127.152H318.376ZM318.376 125.36C318.376 124.353 318.123 123.413 317.443 122.733L316.028 124.147C316.201 124.32 316.376 124.661 316.376 125.36H318.376ZM317.479 122.771C316.837 122.058 315.917 121.8 314.944 121.8V123.8C315.591 123.8 315.866 123.968 315.992 124.109L317.479 122.771ZM314.944 121.8H309.503V123.8H314.944V121.8ZM308.503 139.568V147.12H310.503V139.568H308.503ZM309.503 148.12H317.824V146.12H309.503V148.12ZM317.824 148.12C318.797 148.12 319.717 147.862 320.359 147.149L318.872 145.811C318.746 145.952 318.471 146.12 317.824 146.12V148.12ZM320.323 147.187C321.003 146.507 321.256 145.567 321.256 144.56H319.256C319.256 145.259 319.081 145.6 318.908 145.773L320.323 147.187ZM321.256 144.56V142.064H319.256V144.56H321.256ZM321.256 142.064C321.256 141.066 321.007 140.115 320.284 139.465L318.947 140.951C319.077 141.069 319.256 141.355 319.256 142.064H321.256ZM320.359 139.539C319.717 138.826 318.797 138.568 317.824 138.568V140.568C318.471 140.568 318.746 140.736 318.872 140.877L320.359 139.539ZM317.824 138.568H309.503V140.568H317.824V138.568ZM355.943 123.44V122.44H354.943V123.44H355.943ZM355.943 131.632H354.943V132.632H355.943V131.632ZM362.983 130.8L363.805 131.369L363.814 131.355L363.824 131.341L362.983 130.8ZM362.983 124.336L362.141 124.877L362.151 124.891L362.16 124.905L362.983 124.336ZM341.991 157.488L341.243 158.152L341.282 158.196L341.326 158.235L341.991 157.488ZM341.991 112.496L341.283 111.789L341.283 111.789L341.991 112.496ZM374.951 114.928L374.205 115.594L374.212 115.603L374.22 115.611L374.951 114.928ZM376.871 130.16L375.953 129.762L375.95 129.77L375.946 129.778L376.871 130.16ZM374.119 132.848L373.732 131.926L370.178 133.416L374.008 133.842L374.119 132.848ZM379.687 135.664L378.931 136.32L378.936 136.325L378.941 136.331L379.687 135.664ZM381.287 157.488L381.994 158.195L381.994 158.195L381.287 157.488ZM367.847 157.488L367.099 158.152L367.138 158.196L367.182 158.235L367.847 157.488ZM366.759 143.856L365.95 144.444L365.98 144.486L366.015 144.525L366.759 143.856ZM355.943 143.152V142.152H354.943V143.152H355.943ZM355.367 157.488L354.659 156.781L354.659 156.781L355.367 157.488ZM354.943 123.44V131.632H356.943V123.44H354.943ZM355.943 132.632H360.743V130.632H355.943V132.632ZM360.743 132.632C361.966 132.632 363.139 132.331 363.805 131.369L362.16 130.231C362.058 130.378 361.737 130.632 360.743 130.632V132.632ZM363.824 131.341C364.331 130.552 364.559 129.63 364.559 128.624H362.559C362.559 129.325 362.402 129.853 362.141 130.259L363.824 131.341ZM364.559 128.624V126.448H362.559V128.624H364.559ZM364.559 126.448C364.559 125.445 364.332 124.528 363.805 123.767L362.16 124.905C362.401 125.253 362.559 125.744 362.559 126.448H364.559ZM363.824 123.795C363.169 122.776 361.992 122.44 360.743 122.44V124.44C361.712 124.44 362.028 124.701 362.141 124.877L363.824 123.795ZM360.743 122.44H355.943V124.44H360.743V122.44ZM353.639 157H343.783V159H353.639V157ZM343.783 157C343.082 157 342.775 156.848 342.655 156.741L341.326 158.235C341.974 158.811 342.862 159 343.783 159V157ZM342.738 156.824C342.631 156.703 342.479 156.396 342.479 155.696H340.479C340.479 156.617 340.668 157.505 341.243 158.152L342.738 156.824ZM342.479 155.696V114.224H340.479V155.696H342.479ZM342.479 114.224C342.479 113.509 342.637 113.264 342.698 113.203L341.283 111.789C340.661 112.411 340.479 113.318 340.479 114.224H342.479ZM342.698 113.203C342.819 113.082 343.108 112.92 343.783 112.92V110.92C342.836 110.92 341.93 111.142 341.283 111.789L342.698 113.203ZM343.783 112.92H365.095V110.92H343.783V112.92ZM365.095 112.92C369.795 112.92 372.707 113.918 374.205 115.594L375.696 114.262C373.61 111.928 369.951 110.92 365.095 110.92V112.92ZM374.22 115.611C375.852 117.356 376.703 119.657 376.703 122.608H378.703C378.703 119.244 377.719 116.425 375.681 114.245L374.22 115.611ZM376.703 122.608V125.552H378.703V122.608H376.703ZM376.703 125.552C376.703 127.245 376.44 128.638 375.953 129.762L377.788 130.558C378.41 129.122 378.703 127.443 378.703 125.552H376.703ZM375.946 129.778C375.543 130.753 374.83 131.465 373.732 131.926L374.505 133.77C376.052 133.122 377.174 132.042 377.795 130.542L375.946 129.778ZM374.008 133.842C376.084 134.073 377.702 134.904 378.931 136.32L380.442 135.008C378.855 133.181 376.761 132.135 374.229 131.854L374.008 133.842ZM378.941 136.331C380.192 137.728 380.863 139.626 380.863 142.128H382.863C382.863 139.254 382.083 136.842 380.432 134.997L378.941 136.331ZM380.863 142.128V155.696H382.863V142.128H380.863ZM380.863 155.696C380.863 156.371 380.701 156.659 380.579 156.781L381.994 158.195C382.64 157.549 382.863 156.642 382.863 155.696H380.863ZM380.579 156.781C380.519 156.842 380.274 157 379.559 157V159C380.465 159 381.372 158.817 381.994 158.195L380.579 156.781ZM379.559 157H369.639V159H379.559V157ZM369.639 157C368.938 157 368.631 156.848 368.511 156.741L367.182 158.235C367.83 158.811 368.718 159 369.639 159V157ZM368.594 156.824C368.487 156.703 368.335 156.396 368.335 155.696H366.335C366.335 156.617 366.524 157.505 367.099 158.152L368.594 156.824ZM368.335 155.696V145.904H366.335V155.696H368.335ZM368.335 145.904C368.335 144.866 368.128 143.883 367.502 143.187L366.015 144.525C366.157 144.682 366.335 145.065 366.335 145.904H368.335ZM367.567 143.268C366.953 142.423 365.939 142.152 364.903 142.152V144.152C365.658 144.152 365.882 144.351 365.95 144.444L367.567 143.268ZM364.903 142.152H355.943V144.152H364.903V142.152ZM354.943 143.152V155.696H356.943V143.152H354.943ZM354.943 155.696C354.943 156.371 354.781 156.659 354.659 156.781L356.074 158.195C356.72 157.549 356.943 156.642 356.943 155.696H354.943ZM354.659 156.781C354.599 156.842 354.354 157 353.639 157V159C354.545 159 355.452 158.817 356.074 158.195L354.659 156.781ZM405.745 125.36L404.831 124.954L404.807 125.008L404.79 125.065L405.745 125.36ZM402.737 135.088L401.782 134.793L401.381 136.088H402.737V135.088ZM412.785 135.088V136.088H414.141L413.74 134.793L412.785 135.088ZM409.777 125.36L410.732 125.065L410.715 125.008L410.691 124.954L409.777 125.36ZM409.201 124.528L408.494 125.235L408.533 125.274L408.576 125.309L409.201 124.528ZM406.257 124.528L405.632 123.747L405.589 123.782L405.55 123.821L406.257 124.528ZM401.521 157.488L400.814 156.781L400.814 156.781L401.521 157.488ZM388.593 157.488L387.846 158.152L387.885 158.196L387.929 158.235L388.593 157.488ZM388.657 134.384L387.688 134.136L387.685 134.147L387.683 134.159L388.657 134.384ZM390.577 128.56L391.51 128.919L391.511 128.918L390.577 128.56ZM396.145 114.032L397.079 114.39L397.084 114.377L397.088 114.365L396.145 114.032ZM397.297 112.432L396.773 111.58L396.757 111.59L396.742 111.6L397.297 112.432ZM418.609 112.432L418.054 113.264L418.069 113.274L418.085 113.284L418.609 112.432ZM419.825 114.032L418.882 114.365L418.886 114.377L418.891 114.39L419.825 114.032ZM425.393 128.56L424.459 128.918L424.46 128.919L425.393 128.56ZM427.249 134.384L426.275 134.609L426.277 134.621L426.28 134.632L427.249 134.384ZM427.313 157.488L428.02 158.195L428.02 158.195L427.313 157.488ZM414.001 157.488L413.294 158.195L413.333 158.234L413.376 158.269L414.001 157.488ZM413.425 146.736H414.425V145.736H413.425V146.736ZM402.097 146.736V145.736H401.097V146.736H402.097ZM404.79 125.065L401.782 134.793L403.692 135.383L406.7 125.655L404.79 125.065ZM402.737 136.088H412.785V134.088H402.737V136.088ZM413.74 134.793L410.732 125.065L408.822 125.655L411.83 135.383L413.74 134.793ZM410.691 124.954C410.487 124.495 410.213 124.057 409.826 123.747L408.576 125.309C408.615 125.34 408.726 125.457 408.863 125.766L410.691 124.954ZM409.908 123.821C409.538 123.45 409.064 123.272 408.561 123.272V125.272C408.576 125.272 408.566 125.274 408.542 125.264C408.53 125.26 408.52 125.254 408.51 125.248C408.501 125.242 408.496 125.237 408.494 125.235L409.908 123.821ZM408.561 123.272H406.961V125.272H408.561V123.272ZM406.961 123.272C406.462 123.272 406.01 123.445 405.632 123.747L406.882 125.309C406.931 125.27 406.948 125.272 406.961 125.272V123.272ZM405.55 123.821C405.251 124.12 405.02 124.528 404.831 124.954L406.659 125.766C406.811 125.424 406.922 125.277 406.964 125.235L405.55 123.821ZM401.097 155.696C401.097 156.371 400.935 156.659 400.814 156.781L402.228 158.195C402.875 157.549 403.097 156.642 403.097 155.696H401.097ZM400.814 156.781C400.753 156.842 400.508 157 399.793 157V159C400.699 159 401.606 158.817 402.228 158.195L400.814 156.781ZM399.793 157H390.385V159H399.793V157ZM390.385 157C389.685 157 389.378 156.848 389.257 156.741L387.929 158.235C388.576 158.811 389.464 159 390.385 159V157ZM389.34 156.824C389.233 156.703 389.081 156.396 389.081 155.696H387.081C387.081 156.617 387.27 157.505 387.846 158.152L389.34 156.824ZM389.081 155.696V138.8H387.081V155.696H389.081ZM389.081 138.8C389.081 137.616 389.259 136.222 389.631 134.609L387.683 134.159C387.287 135.874 387.081 137.424 387.081 138.8H389.081ZM389.626 134.632C390.04 133.017 390.666 131.114 391.51 128.919L389.644 128.201C388.781 130.443 388.127 132.423 387.688 134.136L389.626 134.632ZM391.511 128.918L397.079 114.39L395.211 113.674L389.643 128.202L391.511 128.918ZM397.088 114.365C397.29 113.792 397.561 113.458 397.852 113.264L396.742 111.6C396.009 112.089 395.512 112.822 395.202 113.699L397.088 114.365ZM397.821 113.284C398.176 113.065 398.685 112.92 399.409 112.92V110.92C398.427 110.92 397.527 111.116 396.773 111.58L397.821 113.284ZM399.409 112.92H416.625V110.92H399.409V112.92ZM416.625 112.92C417.3 112.92 417.751 113.062 418.054 113.264L419.164 111.6C418.443 111.119 417.571 110.92 416.625 110.92V112.92ZM418.085 113.284C418.411 113.484 418.688 113.815 418.882 114.365L420.768 113.699C420.45 112.799 419.917 112.062 419.133 111.58L418.085 113.284ZM418.891 114.39L424.459 128.918L426.327 128.202L420.759 113.674L418.891 114.39ZM424.46 128.919C425.302 131.11 425.904 133.004 426.275 134.609L428.223 134.159C427.826 132.436 427.191 130.448 426.326 128.201L424.46 128.919ZM426.28 134.632C426.693 136.241 426.889 137.627 426.889 138.8H428.889C428.889 137.413 428.659 135.855 428.218 134.136L426.28 134.632ZM426.889 138.8V155.696H428.889V138.8H426.889ZM426.889 155.696C426.889 156.371 426.727 156.659 426.606 156.781L428.02 158.195C428.667 157.549 428.889 156.642 428.889 155.696H426.889ZM426.606 156.781C426.545 156.842 426.3 157 425.585 157V159C426.491 159 427.398 158.817 428.02 158.195L426.606 156.781ZM425.585 157H415.921V159H425.585V157ZM415.921 157C415.175 157 414.8 156.846 414.626 156.707L413.376 158.269C414.056 158.812 414.961 159 415.921 159V157ZM414.708 156.781C414.587 156.659 414.425 156.371 414.425 155.696H412.425C412.425 156.642 412.647 157.549 413.294 158.195L414.708 156.781ZM414.425 155.696V146.736H412.425V155.696H414.425ZM413.425 145.736H402.097V147.736H413.425V145.736ZM401.097 146.736V155.696H403.097V146.736H401.097ZM435.151 157.488L434.404 158.152L434.443 158.196L434.487 158.235L435.151 157.488ZM435.151 146.48L435.858 147.187L435.858 147.187L435.151 146.48ZM455.375 145.392L454.586 144.778L454.58 144.785L454.575 144.792L455.375 145.392ZM455.375 142.448L454.575 143.048L454.598 143.078L454.622 143.107L455.375 142.448ZM454.159 141.872L454.02 142.862L454.051 142.867L454.082 142.869L454.159 141.872ZM444.559 140.528L444.418 141.518L444.42 141.518L444.559 140.528ZM437.327 137.584L436.676 138.343L436.685 138.351L437.327 137.584ZM438.159 114.864L438.792 115.638L438.801 115.631L438.159 114.864ZM467.535 112.496L466.788 113.16L466.827 113.204L466.871 113.243L467.535 112.496ZM449.615 124.72L450.368 125.379L450.387 125.357L450.404 125.334L449.615 124.72ZM450.895 128.112L451.028 127.121L451 127.117L450.972 127.115L450.895 128.112ZM460.431 129.392L460.572 128.402L460.564 128.401L460.431 129.392ZM467.663 132.336L468.305 131.569L468.305 131.569L467.663 132.336ZM466.831 155.12L467.464 155.894L467.466 155.893L466.831 155.12ZM457.167 157H436.943V159H457.167V157ZM436.943 157C436.243 157 435.936 156.848 435.815 156.741L434.487 158.235C435.134 158.811 436.022 159 436.943 159V157ZM435.898 156.824C435.791 156.703 435.639 156.396 435.639 155.696H433.639C433.639 156.617 433.828 157.505 434.404 158.152L435.898 156.824ZM435.639 155.696V148.208H433.639V155.696H435.639ZM435.639 148.208C435.639 147.493 435.797 147.248 435.858 147.187L434.444 145.773C433.822 146.395 433.639 147.302 433.639 148.208H435.639ZM435.858 147.187C435.98 147.066 436.268 146.904 436.943 146.904V144.904C435.997 144.904 435.09 145.126 434.444 145.773L435.858 147.187ZM436.943 146.904H454.159V144.904H436.943V146.904ZM454.159 146.904C454.925 146.904 455.676 146.658 456.175 145.992L454.575 144.792C454.562 144.809 454.502 144.904 454.159 144.904V146.904ZM456.164 146.006C456.607 145.437 456.823 144.77 456.823 144.048H454.823C454.823 144.35 454.74 144.579 454.586 144.778L456.164 146.006ZM456.823 144.048C456.823 143.218 456.657 142.395 456.128 141.789L454.622 143.107C454.69 143.184 454.823 143.428 454.823 144.048H456.823ZM456.175 141.848C455.697 141.211 454.985 140.933 454.236 140.875L454.082 142.869C454.443 142.897 454.541 143.002 454.575 143.048L456.175 141.848ZM454.298 140.882L444.698 139.538L444.42 141.518L454.02 142.862L454.298 140.882ZM444.7 139.538C441.85 139.131 439.628 138.206 437.969 136.817L436.685 138.351C438.695 140.034 441.294 141.072 444.418 141.518L444.7 139.538ZM437.978 136.825C436.502 135.56 435.639 133.349 435.639 129.904H433.639C433.639 133.627 434.568 136.536 436.676 138.343L437.978 136.825ZM435.639 129.904V123.184H433.639V129.904H435.639ZM435.639 123.184C435.639 119.792 436.724 117.33 438.792 115.638L437.526 114.09C434.901 116.238 433.639 119.323 433.639 123.184H435.639ZM438.801 115.631C440.913 113.865 443.9 112.92 447.887 112.92V110.92C443.597 110.92 440.099 111.938 437.517 114.097L438.801 115.631ZM447.887 112.92H465.807V110.92H447.887V112.92ZM465.807 112.92C466.495 112.92 466.722 113.087 466.788 113.16L468.282 111.832C467.665 111.137 466.741 110.92 465.807 110.92V112.92ZM466.871 113.243C466.944 113.309 467.111 113.536 467.111 114.224H469.111C469.111 113.29 468.894 112.366 468.199 111.749L466.871 113.243ZM467.111 114.224V121.84H469.111V114.224H467.111ZM467.111 121.84C467.111 122.515 466.949 122.803 466.828 122.925L468.242 124.339C468.889 123.693 469.111 122.786 469.111 121.84H467.111ZM466.828 122.925C466.767 122.986 466.522 123.144 465.807 123.144V125.144C466.713 125.144 467.62 124.961 468.242 124.339L466.828 122.925ZM465.807 123.144H450.895V125.144H465.807V123.144ZM450.895 123.144C450.081 123.144 449.342 123.442 448.826 124.106L450.404 125.334C450.485 125.23 450.6 125.144 450.895 125.144V123.144ZM448.862 124.061C448.371 124.623 448.167 125.323 448.167 126.064H450.167C450.167 125.695 450.262 125.499 450.368 125.379L448.862 124.061ZM448.167 126.064C448.167 126.808 448.372 127.502 448.826 128.086L450.404 126.858C450.261 126.674 450.167 126.429 450.167 126.064H448.167ZM448.826 128.086C449.323 128.725 450.027 129.048 450.818 129.109L450.972 127.115C450.653 127.09 450.504 126.987 450.404 126.858L448.826 128.086ZM450.762 129.103L460.298 130.383L460.564 128.401L451.028 127.121L450.762 129.103ZM460.29 130.382C463.14 130.789 465.362 131.714 467.021 133.103L468.305 131.569C466.295 129.886 463.696 128.848 460.572 128.402L460.29 130.382ZM467.021 133.103C468.535 134.37 469.415 136.578 469.415 140.016H471.415C471.415 136.286 470.461 133.374 468.305 131.569L467.021 133.103ZM469.415 140.016V146.736H471.415V140.016H469.415ZM469.415 146.736C469.415 150.121 468.313 152.608 466.196 154.347L467.466 155.893C470.127 153.706 471.415 150.604 471.415 146.736H469.415ZM466.198 154.346C464.084 156.076 461.113 157 457.167 157V159C461.413 159 464.885 158.004 467.464 155.894L466.198 154.346ZM494.12 125.36L493.206 124.954L493.182 125.008L493.165 125.065L494.12 125.36ZM491.112 135.088L490.157 134.793L489.756 136.088H491.112V135.088ZM501.16 135.088V136.088H502.516L502.115 134.793L501.16 135.088ZM498.152 125.36L499.107 125.065L499.09 125.008L499.066 124.954L498.152 125.36ZM497.576 124.528L496.869 125.235L496.908 125.274L496.951 125.309L497.576 124.528ZM494.632 124.528L494.007 123.747L493.964 123.782L493.925 123.821L494.632 124.528ZM489.896 157.488L489.189 156.781L489.189 156.781L489.896 157.488ZM476.968 157.488L476.221 158.152L476.26 158.196L476.304 158.235L476.968 157.488ZM477.032 134.384L476.063 134.136L476.06 134.147L476.058 134.159L477.032 134.384ZM478.952 128.56L479.885 128.919L479.886 128.918L478.952 128.56ZM484.52 114.032L485.454 114.39L485.459 114.377L485.463 114.365L484.52 114.032ZM485.672 112.432L485.148 111.58L485.132 111.59L485.117 111.6L485.672 112.432ZM506.984 112.432L506.429 113.264L506.444 113.274L506.46 113.284L506.984 112.432ZM508.2 114.032L507.257 114.365L507.261 114.377L507.266 114.39L508.2 114.032ZM513.768 128.56L512.834 128.918L512.835 128.919L513.768 128.56ZM515.624 134.384L514.65 134.609L514.652 134.621L514.655 134.632L515.624 134.384ZM515.688 157.488L516.395 158.195L516.395 158.195L515.688 157.488ZM502.376 157.488L501.669 158.195L501.708 158.234L501.751 158.269L502.376 157.488ZM501.8 146.736H502.8V145.736H501.8V146.736ZM490.472 146.736V145.736H489.472V146.736H490.472ZM493.165 125.065L490.157 134.793L492.067 135.383L495.075 125.655L493.165 125.065ZM491.112 136.088H501.16V134.088H491.112V136.088ZM502.115 134.793L499.107 125.065L497.197 125.655L500.205 135.383L502.115 134.793ZM499.066 124.954C498.862 124.495 498.588 124.057 498.201 123.747L496.951 125.309C496.99 125.34 497.101 125.457 497.238 125.766L499.066 124.954ZM498.283 123.821C497.913 123.45 497.439 123.272 496.936 123.272V125.272C496.951 125.272 496.941 125.274 496.917 125.264C496.905 125.26 496.895 125.254 496.885 125.248C496.876 125.242 496.871 125.237 496.869 125.235L498.283 123.821ZM496.936 123.272H495.336V125.272H496.936V123.272ZM495.336 123.272C494.837 123.272 494.385 123.445 494.007 123.747L495.257 125.309C495.306 125.27 495.323 125.272 495.336 125.272V123.272ZM493.925 123.821C493.626 124.12 493.395 124.528 493.206 124.954L495.034 125.766C495.186 125.424 495.297 125.277 495.339 125.235L493.925 123.821ZM489.472 155.696C489.472 156.371 489.31 156.659 489.189 156.781L490.603 158.195C491.25 157.549 491.472 156.642 491.472 155.696H489.472ZM489.189 156.781C489.128 156.842 488.883 157 488.168 157V159C489.074 159 489.981 158.817 490.603 158.195L489.189 156.781ZM488.168 157H478.76V159H488.168V157ZM478.76 157C478.06 157 477.753 156.848 477.632 156.741L476.304 158.235C476.951 158.811 477.839 159 478.76 159V157ZM477.715 156.824C477.608 156.703 477.456 156.396 477.456 155.696H475.456C475.456 156.617 475.645 157.505 476.221 158.152L477.715 156.824ZM477.456 155.696V138.8H475.456V155.696H477.456ZM477.456 138.8C477.456 137.616 477.634 136.222 478.006 134.609L476.058 134.159C475.662 135.874 475.456 137.424 475.456 138.8H477.456ZM478.001 134.632C478.415 133.017 479.041 131.114 479.885 128.919L478.019 128.201C477.156 130.443 476.502 132.423 476.063 134.136L478.001 134.632ZM479.886 128.918L485.454 114.39L483.586 113.674L478.018 128.202L479.886 128.918ZM485.463 114.365C485.665 113.792 485.936 113.458 486.227 113.264L485.117 111.6C484.384 112.089 483.887 112.822 483.577 113.699L485.463 114.365ZM486.196 113.284C486.551 113.065 487.06 112.92 487.784 112.92V110.92C486.802 110.92 485.902 111.116 485.148 111.58L486.196 113.284ZM487.784 112.92H505V110.92H487.784V112.92ZM505 112.92C505.675 112.92 506.126 113.062 506.429 113.264L507.539 111.6C506.818 111.119 505.946 110.92 505 110.92V112.92ZM506.46 113.284C506.786 113.484 507.063 113.815 507.257 114.365L509.143 113.699C508.825 112.799 508.292 112.062 507.508 111.58L506.46 113.284ZM507.266 114.39L512.834 128.918L514.702 128.202L509.134 113.674L507.266 114.39ZM512.835 128.919C513.677 131.11 514.279 133.004 514.65 134.609L516.598 134.159C516.201 132.436 515.566 130.448 514.701 128.201L512.835 128.919ZM514.655 134.632C515.068 136.241 515.264 137.627 515.264 138.8H517.264C517.264 137.413 517.034 135.855 516.593 134.136L514.655 134.632ZM515.264 138.8V155.696H517.264V138.8H515.264ZM515.264 155.696C515.264 156.371 515.102 156.659 514.981 156.781L516.395 158.195C517.042 157.549 517.264 156.642 517.264 155.696H515.264ZM514.981 156.781C514.92 156.842 514.675 157 513.96 157V159C514.866 159 515.773 158.817 516.395 158.195L514.981 156.781ZM513.96 157H504.296V159H513.96V157ZM504.296 157C503.55 157 503.175 156.846 503.001 156.707L501.751 158.269C502.431 158.812 503.336 159 504.296 159V157ZM503.083 156.781C502.962 156.659 502.8 156.371 502.8 155.696H500.8C500.8 156.642 501.022 157.549 501.669 158.195L503.083 156.781ZM502.8 155.696V146.736H500.8V155.696H502.8ZM501.8 145.736H490.472V147.736H501.8V145.736ZM489.472 146.736V155.696H491.472V146.736H489.472Z" fill="#E8EB5F"/>
</svg>
